# xmcd
#
# Track frame offsets:
#	150
#	19089
#	38862
#	57093
#	75608
#	95523
#	116352
#	134878
#	153435
#	172367
#	189057
#	206947
#
# Disc length: 2960 seconds
#
# Revision: 1
# Processed by: cddbd v1.5.2PL0 Copyright (c) Steve Scherf et al.
# Submitted via: audiograbber 1.83.01
#
DISCID=a40b8e0c
DTITLE=Harper - Day By Day
DYEAR=2007
DGENRE=Modern Blues
TTITLE0=Do What Is Right
TTITLE1=On Day
TTITLE2=Sure There's A Place
TTITLE3=Watch Your Back
TTITLE4=Just What Yor're Looking For
TTITLE5=I'll Go Home
TTITLE6=Feels Like Sunday Morning
TTITLE7=Get Out Of This Mess
TTITLE8=Face The Truth
TTITLE9=I Must Be Dreaming
TTITLE10=You Can't Hide
TTITLE11=The Comfort Zone
EXTD=
EXTT0=
EXTT1=
EXTT2=
EXTT3=
EXTT4=
EXTT5=
EXTT6=
EXTT7=
EXTT8=
EXTT9=
EXTT10=
EXTT11=
PLAYORDER=
